# xmcd
# Copyright (C) 1995-1998 Ti Kan
#
# Track frame offsets:
#       150
#       16869
#       33774
#
# Disc length: 709 seconds
#
# Revision: 0
# Processed by: cddbd v1.5.2PL0 Copyright (c) Steve Scherf et al.
# Submitted via: CD-Transfer v1.0
#
DISCID=1302c303
DTITLE=Emotion - 
DYEAR=09
DGENRE=
TTITLE0=Airport Nr. 4 (Partymix) (09)
TTITLE1=
TTITLE2=Dieses Mal Wird Alles Anders (Partymix) (09)
EXTD=
EXTT0=
EXTT1=
EXTT2=
PLAYORDER=
